STARTFONT 2.1
COMMENT Created by fdbbdf
FONT shape10
SIZE 10 78 78
FONTBOUNDINGBOX 29 38 0 -30
STARTPROPERTIES 4
Ownership "  "
FONT_ASCENT 8
FONT_DESCENT 30
DEFAULT_CHAR 32
ENDPROPERTIES
CHARS 52
STARTCHAR ch-0
ENCODING -1 0
SWIDTH 0 0
DWIDTH 16 0
BBX 16 16 0 -16
BITMAP
0000
0000
0000
0000
0000
0000
0000
0000
0000
0000
0000
0000
0000
0000
0000
0000
ENDCHAR
STARTCHAR ch-1
ENCODING -1 1
SWIDTH 0 0
DWIDTH 16 0
BBX 16 16 0 -16
BITMAP
8080
0000
0808
0000
8080
0000
0808
0000
8080
0000
0808
0000
8080
0000
0808
0000
ENDCHAR
STARTCHAR ch-2
ENCODING -1 2
SWIDTH 0 0
DWIDTH 16 0
BBX 16 16 0 -16
BITMAP
8888
0000
2222
0000
8888
0000
2222
0000
8888
0000
2222
0000
8888
0000
2222
0000
ENDCHAR
STARTCHAR ch-3
ENCODING -1 3
SWIDTH 0 0
DWIDTH 16 0
BBX 16 16 0 -16
BITMAP
4044
1101
0444
1011
4440
0111
4404
1110
4044
1101
0444
1011
4440
0111
4404
1110
ENDCHAR
STARTCHAR ch-4
ENCODING -1 4
SWIDTH 0 0
DWIDTH 16 0
BBX 16 16 0 -16
BITMAP
8888
2222
8888
2222
8888
2222
8888
2222
8888
2222
8888
2222
8888
2222
8888
2222
ENDCHAR
STARTCHAR ch-5
ENCODING -1 5
SWIDTH 0 0
DWIDTH 16 0
BBX 16 16 0 -16
BITMAP
a0a4
4a0a
a4a0
0a4a
a0a4
4a0a
a4a0
0a4a
a0a4
4a0a
a4a0
0a4a
a0a4
4a0a
a4a0
0a4a
ENDCHAR
STARTCHAR ch-6
ENCODING -1 6
SWIDTH 0 0
DWIDTH 16 0
BBX 16 16 0 -16
BITMAP
8888
5555
2222
5555
8888
5555
2222
5555
8888
5555
2222
5555
8888
5555
2222
5555
ENDCHAR
STARTCHAR ch-7
ENCODING -1 7
SWIDTH 0 0
DWIDTH 16 0
BBX 16 16 0 -16
BITMAP
aaaa
5555
aaaa
4444
aaaa
5555
aaaa
4444
aaaa
5555
aaaa
4444
aaaa
5555
aaaa
4444
ENDCHAR
STARTCHAR ch-8
ENCODING -1 8
SWIDTH 0 0
DWIDTH 16 0
BBX 16 16 0 -16
BITMAP
aaaa
5555
aaaa
5555
aaaa
5555
aaaa
5555
aaaa
5555
aaaa
5555
aaaa
5555
aaaa
5555
ENDCHAR
STARTCHAR ch-9
ENCODING -1 9
SWIDTH 0 0
DWIDTH 16 0
BBX 16 16 0 -16
BITMAP
aaaa
5555
eeee
5555
aaaa
5555
eeee
5555
aaaa
5555
eeee
5555
aaaa
5555
eeee
5555
ENDCHAR
STARTCHAR ch-10
ENCODING -1 10
SWIDTH 0 0
DWIDTH 16 0
BBX 16 16 0 -16
BITMAP
aaaa
7777
eeee
5555
aaaa
7777
eeee
5555
aaaa
7777
eeee
5555
aaaa
7777
eeee
5555
ENDCHAR
STARTCHAR ch-11
ENCODING -1 11
SWIDTH 0 0
DWIDTH 16 0
BBX 16 16 0 -16
BITMAP
eeee
7777
eeee
5555
eeee
7777
eeee
5555
eeee
7777
eeee
5555
eeee
7777
eeee
5555
ENDCHAR
STARTCHAR ch-12
ENCODING -1 12
SWIDTH 0 0
DWIDTH 16 0
BBX 16 16 0 -16
BITMAP
aaaa
ffff
5555
ffff
aaaa
ffff
5555
ffff
aaaa
ffff
5555
ffff
aaaa
ffff
5555
ffff
ENDCHAR
STARTCHAR ch-13
ENCODING -1 13
SWIDTH 0 0
DWIDTH 16 0
BBX 16 16 0 -16
BITMAP
ffff
aaaa
ffff
dddd
ffff
aaaa
ffff
dddd
ffff
aaaa
ffff
dddd
ffff
aaaa
ffff
dddd
ENDCHAR
STARTCHAR ch-14
ENCODING -1 14
SWIDTH 0 0
DWIDTH 16 0
BBX 16 16 0 -16
BITMAP
7777
ffff
dddd
ffff
7777
ffff
dddd
ffff
7777
ffff
dddd
ffff
7777
ffff
dddd
ffff
ENDCHAR
STARTCHAR ch-15
ENCODING -1 15
SWIDTH 0 0
DWIDTH 16 0
BBX 16 16 0 -16
BITMAP
7777
ffff
ffff
ffff
7777
ffff
ffff
ffff
7777
ffff
ffff
ffff
7777
ffff
ffff
ffff
ENDCHAR
STARTCHAR ch-16
ENCODING -1 16
SWIDTH 0 0
DWIDTH 16 0
BBX 16 16 0 -16
BITMAP
ffff
ffff
ffff
ffff
ffff
ffff
ffff
ffff
ffff
ffff
ffff
ffff
ffff
ffff
ffff
ffff
ENDCHAR
STARTCHAR ch-17
ENCODING -1 17
SWIDTH 0 0
DWIDTH 16 0
BBX 16 16 0 -16
BITMAP
aaaa
0000
5555
0000
aaaa
0000
5555
0000
aaaa
0000
5555
0000
aaaa
0000
5555
0000
ENDCHAR
STARTCHAR sp
ENCODING -1 32
SWIDTH 0 0
DWIDTH 8 0
BBX 0 0 0 0
BITMAP
ENDCHAR
STARTCHAR !
ENCODING -1 33
SWIDTH 0 0
DWIDTH 10 0
BBX 10 12 0 -12
BITMAP
3000
4800
8400
0180
0240
8400
3000
4800
8400
0180
0240
8400
ENDCHAR
STARTCHAR "
ENCODING -1 34
SWIDTH 0 0
DWIDTH 26 0
BBX 29 30 0 -30
BITMAP
1f816b40
2de10840
59214240
80113c80
90908100
b9d07e00
84100000
a2100000
48a00000
27203f00
20405580
1f80aa40
0000d540
00017740
00012240
1fc18840
3aa10840
5d614140
8010be40
99908040
99904080
82303f00
84100000
9f300000
40200000
60401e00
1f802100
00005100
00008080
00016b40
ENDCHAR
STARTCHAR #
ENCODING -1 35
SWIDTH 0 0
DWIDTH 0 0
BBX 24 22 0 -22
BITMAP
01c00000
02200000
04100000
08080000
10040000
20020000
40010000
80008000
00000000
00000000
00000000
0001c000
00022000
00041000
00080800
00100400
00200200
00400100
80800000
00000000
00000000
00000000
ENDCHAR
STARTCHAR %
ENCODING -1 37
SWIDTH 0 0
DWIDTH 0 0
BBX 25 17 0 -17
BITMAP
00000000
0e00e000
35015800
22828800
41830400
60c30c00
50421400
28c62800
1ca45000
0679a000
01efc000
83460000
44038400
7800f800
00000000
00000000
00000000
ENDCHAR
STARTCHAR 0
ENCODING -1 48
SWIDTH 0 0
DWIDTH 16 0
BBX 16 16 0 -16
BITMAP
0000
0000
0000
0000
0000
0000
0000
0000
0000
0000
0000
0000
0000
0000
0000
0000
ENDCHAR
STARTCHAR 1
ENCODING -1 49
SWIDTH 0 0
DWIDTH 16 0
BBX 16 16 0 -16
BITMAP
0000
2222
0000
8888
0000
2222
0000
8888
0000
2222
0000
8888
0000
2222
0000
8888
ENDCHAR
STARTCHAR 2
ENCODING -1 50
SWIDTH 0 0
DWIDTH 16 0
BBX 16 18 0 -18
BITMAP
8888
2222
8888
2222
8888
2222
8888
2222
8888
2222
8888
2222
8888
2222
8888
2222
8888
2222
ENDCHAR
STARTCHAR 3
ENCODING -1 51
SWIDTH 0 0
DWIDTH 16 0
BBX 16 18 0 -18
BITMAP
4444
2929
9292
4444
9292
2929
4444
9292
2929
4444
2929
9292
4444
9292
2929
4444
9292
2929
ENDCHAR
STARTCHAR 4
ENCODING -1 52
SWIDTH 0 0
DWIDTH 16 0
BBX 16 16 0 -16
BITMAP
9292
aaaa
5555
aaaa
2929
aaaa
5555
aaaa
9292
aaaa
5555
aaaa
2929
aaaa
5555
aaaa
ENDCHAR
STARTCHAR 5
ENCODING -1 53
SWIDTH 0 0
DWIDTH 16 0
BBX 16 18 0 -18
BITMAP
5555
aaaa
5555
aaaa
5555
aaaa
5555
aaaa
5555
aaaa
5555
aaaa
5555
aaaa
5555
aaaa
5555
aaaa
ENDCHAR
STARTCHAR 6
ENCODING -1 54
SWIDTH 0 0
DWIDTH 16 0
BBX 16 18 0 -10
BITMAP
dddd
7777
aaaa
dddd
7777
aaaa
dddd
aaaa
7777
dddd
7777
aaaa
dddd
7777
aaaa
dddd
aaaa
7777
ENDCHAR
STARTCHAR 7
ENCODING -1 55
SWIDTH 0 0
DWIDTH 16 0
BBX 16 18 0 -10
BITMAP
7d7d
efef
b6b6
fdfd
5757
fbfb
eeee
bbbb
efef
7d7d
efef
b6b6
fdfd
5757
fbfb
eeee
bbbb
efef
ENDCHAR
STARTCHAR 8
ENCODING -1 56
SWIDTH 0 0
DWIDTH 16 0
BBX 16 18 0 -11
BITMAP
7777
ffff
dddd
ffff
ffff
bbbb
ffff
eeee
ffff
7777
ffff
dddd
ffff
ffff
bbbb
ffff
eeee
ffff
ENDCHAR
STARTCHAR 9
ENCODING -1 57
SWIDTH 0 0
DWIDTH 15 0
BBX 16 15 0 -8
BITMAP
ffff
ffff
ffff
ffff
ffff
ffff
ffff
ffff
ffff
ffff
ffff
ffff
ffff
ffff
ffff
ENDCHAR
STARTCHAR :
ENCODING -1 58
SWIDTH 0 0
DWIDTH 16 0
BBX 16 16 0 -8
BITMAP
ffff
ffff
ffff
ffff
ffff
ffff
ffff
ffff
ffff
ffff
ffff
ffff
ffff
ffff
ffff
ffff
ENDCHAR
STARTCHAR B
ENCODING -1 66
SWIDTH 0 0
DWIDTH 16 0
BBX 16 16 0 -9
BITMAP
1008
1008
1008
ffff
8100
8100
8100
ffff
0810
0810
0810
ffff
8080
8080
8080
ffff
ENDCHAR
STARTCHAR F
ENCODING -1 70
SWIDTH 0 0
DWIDTH 0 0
BBX 16 18 0 -18
BITMAP
00c0
01e0
0110
0080
0080
0040
0f40
3fc0
7fc0
8f80
0200
0200
0200
0200
0700
0000
0000
0000
ENDCHAR
STARTCHAR G
ENCODING -1 71
SWIDTH 0 0
DWIDTH 16 0
BBX 16 16 0 -9
BITMAP
aaaa
5555
aaaa
5555
aaaa
5555
aaaa
5555
aaaa
5555
aaaa
5555
aaaa
5555
aaaa
5555
ENDCHAR
STARTCHAR H
ENCODING -1 72
SWIDTH 0 0
DWIDTH 9 0
BBX 16 16 0 -9
BITMAP
81c1
42e2
2474
1838
181c
242e
4247
8183
c181
e242
7424
3818
1c18
2e24
4742
8381
ENDCHAR
STARTCHAR W
ENCODING -1 87
SWIDTH 0 0
DWIDTH 10 0
BBX 10 10 0 0
BITMAP
f800
8800
9e00
9200
9200
9200
f200
1200
1e00
0000
ENDCHAR
STARTCHAR X
ENCODING -1 88
SWIDTH 0 0
DWIDTH 10 0
BBX 10 10 0 0
BITMAP
07c0
0440
1e40
1240
1240
1240
13c0
1200
1e00
0000
ENDCHAR
STARTCHAR Y
ENCODING -1 89
SWIDTH 0 0
DWIDTH 10 0
BBX 10 10 0 0
BITMAP
1e00
1200
1200
13c0
1240
1e40
0440
0440
0440
07c0
ENDCHAR
STARTCHAR Z
ENCODING -1 90
SWIDTH 0 0
DWIDTH 10 0
BBX 10 10 0 0
BITMAP
1e00
1200
1200
f200
9200
9e00
8800
8800
8800
f800
ENDCHAR
STARTCHAR a
ENCODING -1 97
SWIDTH 0 0
DWIDTH 16 0
BBX 16 16 0 -16
BITMAP
cccc
1111
6666
8888
3333
4444
9999
2222
cccc
1111
6666
8888
3333
4444
9999
2222
ENDCHAR
STARTCHAR b
ENCODING -1 98
SWIDTH 0 0
DWIDTH 0 0
BBX 16 16 0 -16
BITMAP
8888
4444
1111
2222
8888
4444
1111
2222
8888
4444
1111
2222
8888
4444
1111
2222
ENDCHAR
STARTCHAR c
ENCODING -1 99
SWIDTH 0 0
DWIDTH 16 0
BBX 16 16 0 -16
BITMAP
1111
4444
1111
2222
9999
4444
1111
2222
9999
4444
1111
2222
9999
4444
1111
2222
ENDCHAR
STARTCHAR d
ENCODING -1 100
SWIDTH 0 0
DWIDTH 0 0
BBX 16 16 0 -16
BITMAP
aaaa
0000
aaaa
0000
aaaa
0000
aaaa
0000
aaaa
0000
aaaa
0000
aaaa
0000
aaaa
0000
ENDCHAR
STARTCHAR e
ENCODING -1 101
SWIDTH 0 0
DWIDTH 16 0
BBX 16 16 0 -16
BITMAP
8888
0000
0000
0000
8888
0000
0000
0000
8888
0000
0000
0000
8888
0000
0000
0000
ENDCHAR
STARTCHAR f
ENCODING -1 102
SWIDTH 0 0
DWIDTH 16 0
BBX 16 18 4 -11
BITMAP
00c0
01e0
0110
0080
0080
0040
0f40
3fc0
7fc0
8f80
0200
0200
0200
0200
0700
0000
0000
0000
ENDCHAR
STARTCHAR h
ENCODING -1 104
SWIDTH 0 0
DWIDTH 8 0
BBX 16 17 1 -10
BITMAP
001c
38ec
4514
8208
8008
8008
8008
4010
4210
2420
2820
1040
e880
2500
2200
0000
0000
ENDCHAR
STARTCHAR t
ENCODING -1 116
SWIDTH 0 0
DWIDTH 4 0
BBX 16 16 0 -10
BITMAP
e4a2
e452
ffaf
ff5f
e4a2
e452
aaaa
5555
aaaa
e452
e4a2
ff5f
ffaf
ff5f
e4a2
e452
ENDCHAR
STARTCHAR w
ENCODING -1 119
SWIDTH 0 0
DWIDTH 10 0
BBX 16 17 0 -14
BITMAP
0038
00c4
030c
0c10
3010
c00f
0000
0000
c001
2006
6018
8060
8180
7e00
0000
0000
0000
ENDCHAR
STARTCHAR z
ENCODING -1 122
SWIDTH 0 0
DWIDTH 20 0
BBX 16 16 0 -16
BITMAP
8080
0202
0808
2020
8080
0202
0808
2020
8080
0202
0808
2020
8080
0202
0808
2000
ENDCHAR
ENDFONT
